<svg width="859" height="246" viewBox="0 0 859 246" fill="none" xmlns="http://www.w3.org/2000/svg">
<path d="M108.749 195C99.249 195 90.999 193 83.999 189C77.1657 184.833 71.8324 179.25 67.999 172.25C64.3324 165.083 62.499 157.083 62.499 148.25V41.25H9.24902V20H139.749V41.25H86.499V151.25C86.499 157.75 88.499 163.167 92.499 167.5C96.6657 171.667 102.166 173.75 108.999 173.75H120.499V195H108.749ZM369.487 198C357.987 198 347.654 195.667 338.487 191C329.487 186.167 322.404 179.5 317.237 171C312.237 162.5 309.737 152.583 309.737 141.25V67.5H332.987V141C332.987 148.667 334.654 155.333 337.987 161C341.321 166.5 345.737 170.75 351.237 173.75C356.904 176.75 362.904 178.25 369.237 178.25C375.737 178.25 381.737 176.75 387.237 173.75C392.904 170.75 397.404 166.5 400.737 161C404.237 155.333 405.987 148.667 405.987 141V67.5H429.237V141.25C429.237 152.583 426.654 162.5 421.487 171C416.321 179.5 409.237 186.167 400.237 191C391.237 195.667 380.987 198 369.487 198ZM452.493 195V103.75C452.493 92.4167 455.66 83.5833 461.993 77.25C468.493 70.75 477.41 67.5 488.743 67.5H514.993V87.25H492.993C487.493 87.25 483.16 88.8333 479.993 92C476.993 95.1667 475.493 99.5833 475.493 105.25V195H452.493ZM523.751 195V67.5H547.001V195H523.751ZM535.501 47.25C531.334 47.25 527.668 45.75 524.501 42.75C521.501 39.5833 520.001 35.9167 520.001 31.75C520.001 27.5833 521.501 24 524.501 21C527.668 17.8333 531.334 16.25 535.501 16.25C539.668 16.25 543.251 17.8333 546.251 21C549.418 24 551.001 27.5833 551.001 31.75C551.001 35.9167 549.418 39.5833 546.251 42.75C543.251 45.75 539.668 47.25 535.501 47.25ZM570.821 195V121.25C570.821 109.917 573.321 100 578.321 91.5C583.488 83 590.571 76.4167 599.571 71.75C608.571 66.9167 618.821 64.5 630.321 64.5C641.988 64.5 652.238 66.9167 661.071 71.75C670.071 76.4167 677.071 83 682.071 91.5C687.238 100 689.821 109.917 689.821 121.25V195H666.821V121.5C666.821 113.833 665.071 107.25 661.571 101.75C658.238 96.0833 653.738 91.75 648.071 88.75C642.571 85.75 636.655 84.25 630.321 84.25C623.988 84.25 617.988 85.75 612.321 88.75C606.821 91.75 602.321 96.0833 598.821 101.75C595.488 107.25 593.821 113.833 593.821 121.5V195H570.821ZM733.089 245.75V226H795.589C801.756 226 806.506 224.167 809.839 220.5C813.339 216.833 815.089 212 815.089 206V171H814.589C811.422 175.833 807.589 180.167 803.089 184C798.589 187.833 793.422 190.917 787.589 193.25C781.756 195.417 775.172 196.5 767.839 196.5C755.839 196.5 745.256 193.75 736.089 188.25C726.922 182.583 719.756 174.833 714.589 165C709.422 155 706.839 143.583 706.839 130.75C706.839 118.25 709.422 107 714.589 97C719.756 87 727.172 79.0833 736.839 73.25C746.672 67.4167 758.506 64.5 772.339 64.5C785.672 64.5 797.256 67.3333 807.089 73C816.922 78.6667 824.506 86.5833 829.839 96.75C835.339 106.75 838.089 118.5 838.089 132V207.5C838.089 219.167 834.672 228.417 827.839 235.25C821.006 242.25 811.672 245.75 799.839 245.75H733.089ZM772.089 176.75C780.589 176.75 788.006 174.75 794.339 170.75C800.839 166.75 805.839 161.333 809.339 154.5C813.006 147.5 814.839 139.667 814.839 131C814.839 122.167 813.089 114.25 809.589 107.25C806.089 100.25 801.172 94.75 794.839 90.75C788.506 86.5833 780.922 84.5 772.089 84.5C763.422 84.5 755.922 86.5833 749.589 90.75C743.422 94.75 738.589 100.333 735.089 107.5C731.756 114.5 730.089 122.417 730.089 131.25C730.089 139.583 731.756 147.25 735.089 154.25C738.589 161.083 743.422 166.583 749.589 170.75C755.922 174.75 763.422 176.75 772.089 176.75Z" fill="url(#paint0_linear_102_7)"/>
<path d="M269.25 150.469C279.781 154.943 286.167 160.813 286.167 167.25C286.167 181.266 255.869 192.625 218.5 192.625C181.131 192.625 150.833 181.266 150.833 167.25C150.833 160.822 157.219 154.935 167.75 150.469" stroke="#161C24" stroke-width="15" stroke-linecap="square" stroke-linejoin="round"/>
<path fill-rule="evenodd" clip-rule="evenodd" d="M212.258 164.501L218.5 158.792L212.258 164.501ZM224.742 164.501L224.785 164.459L224.886 164.34L225.267 163.917L226.671 162.344C233.699 154.34 240.327 145.992 246.531 137.333C251.961 129.72 257.527 121.093 261.764 112.525C265.909 104.151 269.25 94.9397 269.25 86.4221C269.25 56.2005 247.106 31.9166 218.5 31.9166C189.894 31.9166 167.75 56.192 167.75 86.4221C167.75 94.9397 171.091 104.151 175.236 112.525C179.473 121.093 185.047 129.72 190.461 137.333C197.079 146.563 204.18 155.436 211.733 163.917L212.114 164.34L212.215 164.459L212.258 164.501C213.05 165.368 214.015 166.06 215.089 166.533C216.164 167.007 217.326 167.252 218.5 167.252C219.674 167.252 220.836 167.007 221.911 166.533C222.985 166.06 223.95 165.368 224.742 164.501V164.501ZM218.5 158.792L224.742 164.493L218.5 158.792ZM218.5 65.75C214.013 65.75 209.711 67.5322 206.538 70.7047C203.366 73.8772 201.583 78.18 201.583 82.6666C201.583 87.1532 203.366 91.456 206.538 94.6285C209.711 97.801 214.013 99.5833 218.5 99.5833C222.987 99.5833 227.289 97.801 230.462 94.6285C233.634 91.456 235.417 87.1532 235.417 82.6666C235.417 78.18 233.634 73.8772 230.462 70.7047C227.289 67.5322 222.987 65.75 218.5 65.75V65.75Z" fill="#D33B26"/>
<defs>
<linearGradient id="paint0_linear_102_7" x1="429.5" y1="0" x2="429.5" y2="214" gradientUnits="userSpaceOnUse">
<stop offset="0.510417" stop-color="#161C24"/>
</linearGradient>
</defs>
</svg>
